<svg xmlns="http://www.w3.org/2000/svg" viewBox="0 0 27.69 39.47"><defs><style>.cls-1{fill:#fff}.cls-2{fill:#9cd8d9}.cls-3{fill:#4f849e}</style></defs><title>Asset 3</title><g id="Layer_2" data-name="Layer 2"><g id="Layer_1-2" data-name="Layer 1"><rect class="cls-1" y="7.5" width="27.69" height="31.97" rx="2.9" ry="2.9"/><path class="cls-1" d="M6.05 1.97h15.59v8.44H6.05z"/><path class="cls-1" d="M4.84 0h18v4.74h-18z"/><circle class="cls-2" cx="8.94" cy="29.1" r="3.27"/><circle class="cls-2" cx="21.1" cy="20.37" r="3.27"/><path class="cls-2" d="M9.69 16.06l-3.13 1.48a2.7 2.7 0 1 0 2.3 4.88L12 20.94z"/><path class="cls-3" d="M13.52 14.25l-3.31 1.56 2.31 4.88 3.31-1.57a2.7 2.7 0 1 0-2.31-4.87z"/><path class="cls-2" d="M16.2 32.57l1 3.32a2.7 2.7 0 0 0 5.17-1.54l-1-3.32z"/><path class="cls-3" d="M15 28.5l1 3.5 5.17-1.54L20.16 27A2.7 2.7 0 0 0 15 28.5z"/></g></g></svg>