<svg xmlns="http://www.w3.org/2000/svg" viewBox="0 0 40.53 28.79"><defs><style>.cls-1{fill:#395569}.cls-2{fill:#fff}.cls-3{font-size:7.78px}.cls-3,.cls-4,.cls-5{fill:#4f849e}.cls-3,.cls-4{font-family:MyriadPro-Bold,MyriadPro Bold;font-weight:700}.cls-4{font-size:5.61px}</style></defs><title>Asset 1</title><g id="Layer_2" data-name="Layer 2"><g id="Layer_1-2" data-name="Layer 1"><path class="cls-1" d="M16.66 0h23.87v28.79H16.66z"/><path class="cls-2" d="M18.07 5.06h21.05v21.61H18.07z"/><text class="cls-3" transform="translate(27.27 12.81)">E</text><text class="cls-4" transform="translate(23.93 19.69)"><tspan>F P</tspan></text><path class="cls-5" d="M21.22 23.29a1.4 1.4 0 1 1 1.4 1.41 1.4 1.4 0 0 1-1.4-1.41zm6.57 0a1.41 1.41 0 1 1 1.4 1.41 1.4 1.4 0 0 1-1.4-1.41zm6.06 0a1.38 1.38 0 0 1 1.4-1.42 1.42 1.42 0 0 1 0 2.83 1.39 1.39 0 0 1-1.4-1.41zM0 23.53l25.93-12.25-25 14.08L0 23.53z"/></g></g></svg>