<svg xmlns="http://www.w3.org/2000/svg" viewBox="0 0 23.21 36.56"><defs><style>.cls-1{fill:#395569}.cls-2{fill:#9cd8d9;stroke:#395569;stroke-miterlimit:10;stroke-width:2px}.cls-3{fill:#4eb7c4}.cls-4{fill:#fff}</style></defs><title>Asset 4</title><g id="Layer_2" data-name="Layer 2"><g id="Layer_1-2" data-name="Layer 1"><rect class="cls-1" x="5.7" y="8.54" width="5.45" height="28.36" rx="1.67" ry="1.67" transform="rotate(19.14 8.438 22.733)"/><circle class="cls-2" cx="11.61" cy="11.61" r="10.6"/><path class="cls-3" d="M3.47 11.65a27.92 27.92 0 0 1 16.37-.33S13.29 27 3.47 11.65z"/><path class="cls-4" d="M5.27 12.09a26.18 26.18 0 0 1 12.94-.22s-5.21 10.4-12.94.22z"/><path class="cls-3" d="M13 10.09s-2.84-3.9-9.37 1.23C2.29 12.39 13 10.09 13 10.09z"/><path class="cls-3" d="M10.41 10.09s2.83-3.9 9.36 1.23c1.35 1.07-9.36-1.23-9.36-1.23z"/></g></g></svg>