<?xml version="1.0" encoding="UTF-8"?>
<svg width="321px" height="72px" viewBox="0 0 321 72" version="1.1" xmlns="http://www.w3.org/2000/svg" xmlns:xlink="http://www.w3.org/1999/xlink">
    <!-- Generator: Sketch 62 (91390) - https://sketch.com -->
    <title>Group 9</title>
    <desc>Created with Sketch.</desc>
    <defs>
        <polygon id="path-1" points="0 0.159389514 35.5677112 0.159389514 35.5677112 31.3657442 0 31.3657442"></polygon>
        <polygon id="path-3" points="0.175218231 0.113211471 35.7359495 0.113211471 35.7359495 31.3194933 0.175218231 31.3194933"></polygon>
        <polygon id="path-5" points="0.0372804747 0.115857847 29.4450388 0.115857847 29.4450388 31.3194933 0.0372804747 31.3194933"></polygon>
        <polygon id="path-7" points="0 71 320.891869 71 320.891869 0.0504727891 0 0.0504727891"></polygon>
    </defs>
    <g id="Page-1" stroke="none" stroke-width="1" fill="none" fill-rule="evenodd">
        <g id="Foundation--–-H&amp;W" transform="translate(-143.000000, -89.000000)">
            <g id="TopNav">
                <g id="Group-60" transform="translate(143.000000, 89.000000)">
                    <g id="Group-9">
                        <g id="Group-32">
                            <path d="M8.89013439,0.0508152709 C8.89013439,7.8054247 15.1583378,14.0919025 22.8904051,14.0919025 L31.7805879,14.0919025 C31.7805879,6.3372931 25.5123845,0.0508152709 17.7803172,0.0508152709 L8.89013439,0.0508152709 Z" id="Fill-1" fill="#8FCEA5"></path>
                            <path d="M52.6758825,4.50881738 L49.5607841,4.50881738 C41.8287168,4.50881738 35.5605134,10.7952952 35.5605134,18.5499046 L35.5605134,40.1732227 L52.6758825,40.1732227 C60.4081918,40.1732227 66.6761532,33.8867449 66.6761532,26.1321355 L66.6761532,18.5499046 C66.6761532,10.7952952 60.4081918,4.50881738 52.6758825,4.50881738" id="Fill-3" fill="#ED1C24"></path>
                            <g id="Group-7" transform="translate(0.000000, 17.723434)">
                                <mask id="mask-2" fill="white">
                                    <use xlink:href="#path-1"></use>
                                </mask>
                                <g id="Clip-6"></g>
                                <path d="M35.5606102,14.2004768 L35.5606102,31.3657442 L14.0001497,31.3657442 C6.26808241,31.3657442 -0.000121040502,25.0792664 -0.000121040502,17.3246569 L-0.000121040502,14.2004768 C-0.000121040502,6.44586735 6.26808241,0.159389514 14.0001497,0.159389514 L21.5603395,0.159389514 C29.051052,0.159389514 35.1674706,6.05910802 35.5424541,13.4781861 C35.5424541,13.4781861 35.5417279,13.5187315 35.5606102,13.5335415 C35.5765875,13.5461664 35.5606102,13.5335415 35.5606102,13.5335415 L35.5606102,14.2004768" id="Fill-5" fill="#DC1E8A" mask="url(#mask-2)"></path>
                            </g>
                            <path d="M71.1212204,48.422146 L71.1212204,45.2979659 C71.1212204,37.5433564 64.8530169,31.2568786 57.1209496,31.2568786 L35.5607312,31.2568786 L35.5607312,48.422146 C35.5607312,56.1769982 41.8286926,62.4632333 49.5607599,62.4632333 L57.1209496,62.4632333 C64.8530169,62.4632333 71.1212204,56.1769982 71.1212204,48.422146" id="Fill-8" fill="#DC1E8A"></path>
                            <g id="Group-12" transform="translate(8.714916, 40.059817)">
                                <mask id="mask-4" fill="white">
                                    <use xlink:href="#path-3"></use>
                                </mask>
                                <g id="Clip-11"></g>
                                <path d="M0.175218231,17.2784789 L0.175218231,14.1542987 C0.175218231,6.3996893 6.44342168,0.113211471 14.175489,0.113211471 L35.7359495,0.113211471 L35.7359495,17.2784789 C35.7359495,25.0330883 29.467746,31.3195662 21.7356787,31.3195662 L14.175489,31.3195662 C6.44342168,31.3195662 0.175218231,25.0330883 0.175218231,17.2784789" id="Fill-10" fill="#ED1C24" mask="url(#mask-4)"></path>
                            </g>
                            <path d="M44.4507446,40.1731013 L52.6759309,40.1731013 C57.7351818,40.1731013 62.1696216,37.4781682 64.6294067,33.4452372 C62.4593926,32.0341605 59.8836507,31.257 57.1210223,31.257 L35.5605618,31.257 L35.5605618,31.9239353 L35.5605618,40.1731013 L44.4507446,40.1731013 Z" id="Fill-13" fill="#891C56"></path>
                            <path d="M35.6425788,49.0891056 L35.5605134,48.4221703 L35.5605134,40.1730042 L22.8904777,40.1730042 C17.1763977,40.1730042 12.2047801,43.6098937 10.0834243,48.5316671 C11.3252998,48.8934194 12.6422205,49.0891056 14.0002949,49.0891056 L35.6425788,49.0891056 Z" id="Fill-15" fill="#F391BC"></path>
                            <path d="M44.4507446,40.1731013 L35.5605618,40.1731013 L35.5605618,48.4222674 C35.5605618,54.1530063 38.9855238,59.0784215 43.8929899,61.2608318 C44.2536906,60.0155785 44.4507446,58.7004025 44.4507446,57.3383688 L44.4507446,40.1731013 Z" id="Fill-17" fill="#8FCEA5"></path>
                            <path d="M159.392427,12.8103768 C158.1445,11.4755352 156.231092,10.6410771 154.23465,10.6410771 C149.78399,10.6410771 146.955516,14.5623262 146.955516,19.9019356 C146.955516,26.9102185 150.865366,29.4968688 154.317925,29.4968688 C157.811881,29.4968688 161.555421,26.9937372 161.763369,20.8199124 C161.888283,17.7326358 161.05625,14.6040855 159.392427,12.8103768 M154.317925,35.7124529 C145.000712,35.7124529 139.71802,28.5371327 139.71802,20.0272136 C139.71802,12.0591946 144.751126,4.50876882 154.193012,4.50876882 C155.94011,4.50876882 157.770243,4.75908198 159.558737,5.38474349 C168.543331,8.51353659 169.125778,18.3170236 169.125778,20.3192861 C169.125778,25.4085823 166.796233,29.9974951 163.551863,32.6254191 C160.681993,35.0032727 157.354347,35.7124529 154.317925,35.7124529" id="Fill-19" fill="#891C56"></path>
                            <path d="M137.811269,5.38476777 L113.67192,5.38476777 C113.090925,5.38476777 112.619836,5.85698804 112.619836,6.4394335 L112.619836,10.170095 C112.619836,10.7527833 113.090925,11.2250035 113.67192,11.2250035 L121.029245,11.2250035 L122.081087,11.2250035 L122.081087,12.279912 L122.081087,33.8233533 C122.081087,34.4057987 122.552177,34.878019 123.133171,34.878019 L128.391655,34.878019 C128.972649,34.878019 129.443255,34.4057987 129.443255,33.8233533 L129.443255,12.279912 L129.443255,11.2250035 L130.495097,11.2250035 L137.811269,11.2250035 C138.392263,11.2250035 138.862869,10.7527833 138.862869,10.170095 L138.862869,6.4394335 C138.862869,5.85698804 138.392263,5.38476777 137.811269,5.38476777" id="Fill-21" fill="#891C56"></path>
                            <path d="M106.110059,41.0933846 L86.9532212,41.0933846 C86.3722268,41.0933846 85.9013793,41.5656049 85.9013793,42.1482931 L85.9013793,69.489968 C85.9013793,70.0726562 86.3722268,70.5448765 86.9532212,70.5448765 L106.043729,70.5448765 C106.624724,70.5448765 107.095813,70.0726562 107.095813,69.489968 L107.095813,65.8015514 C107.095813,65.2188631 106.624724,64.7466429 106.043729,64.7466429 L94.2737508,64.7466429 L93.2221509,64.7466429 L93.2221509,63.6917343 L93.2221509,58.7930257 L93.2221509,57.7381172 L94.2737508,57.7381172 L105.153597,57.7381172 C105.73435,57.7381172 106.205197,57.2658969 106.205197,56.6834514 L106.205197,53.2028603 C106.205197,52.6204148 105.73435,52.1479518 105.153597,52.1479518 L94.2737508,52.1479518 L93.2221509,52.1479518 L93.2221509,51.0932861 L93.2221509,47.8632509 L93.2221509,46.8083424 L94.2737508,46.8083424 L106.110059,46.8083424 C106.691054,46.8083424 107.161901,46.3361221 107.161901,45.7534338 L107.161901,42.1482931 C107.161901,41.5656049 106.691054,41.0933846 106.110059,41.0933846" id="Fill-23" fill="#891C56"></path>
                            <path d="M125.248015,54.5678075 L120.226771,54.5678075 L119.175171,54.5678075 L119.175171,53.512899 L119.175171,47.654697 L119.175171,46.6000313 L120.226771,46.6000313 L125.414325,46.6000313 C126.953234,46.6415479 129.656795,46.7668258 129.656795,50.5212804 C129.656795,54.4425296 126.287753,54.5260482 125.248015,54.5678075 M136.814162,68.9623923 L134.914068,65.665348 L131.556404,59.8389511 C131.556404,59.8389511 131.55592,59.8389511 131.55592,59.8387083 L130.946602,58.7811291 C131.297135,58.6490531 131.712546,58.4929412 132.156039,58.2970123 C132.210749,58.2729764 132.265944,58.2477266 132.32138,58.222234 C132.417971,58.1780468 132.515771,58.1307034 132.614298,58.082146 C132.671187,58.0542255 132.727592,58.0265479 132.784965,57.9971707 C132.895354,57.9401158 133.006954,57.8784479 133.119037,57.8153234 C133.163096,57.7900735 133.207155,57.7672516 133.251455,57.7412734 C133.407356,57.6497428 133.563498,57.5521425 133.718914,57.4472586 C133.747479,57.4280785 133.775561,57.4059849 133.803884,57.3863191 C133.92904,57.2994015 134.053954,57.2083564 134.177415,57.1117273 C134.229463,57.0706963 134.281026,57.0262664 134.332589,56.9832931 C134.432569,56.9005028 134.53158,56.8147991 134.629138,56.7247252 C134.684091,56.67374 134.738801,56.6208125 134.792785,56.5673994 C134.886471,56.4751404 134.977977,56.3782685 135.068515,56.2784831 C135.119595,56.221671 135.171158,56.1653445 135.221269,56.1061045 C135.316891,55.9927231 135.409365,55.8720581 135.499904,55.7487224 C135.538637,55.6955521 135.579548,55.6452952 135.617555,55.5904254 C135.743195,55.4088209 135.863267,55.2184761 135.975593,55.0155063 C135.99036,54.9890426 136.002464,54.9591798 136.016747,54.9322305 C136.112369,54.7542678 136.202423,54.5680503 136.286425,54.372607 C136.31838,54.2973431 136.346703,54.2162523 136.377447,54.1380749 C136.43821,53.9817203 136.496551,53.821481 136.548841,53.6539581 C136.578617,53.5604852 136.605488,53.4633705 136.632117,53.366013 C136.677628,53.1997041 136.718782,53.0273255 136.756062,52.8500911 C136.778091,52.7464212 136.799637,52.6422657 136.818519,52.5344683 C136.85241,52.3402389 136.878071,52.1365408 136.901311,51.9296865 C136.912446,51.8299011 136.926487,51.7337576 136.935202,51.630816 C136.961105,51.3161643 136.977808,50.9903445 136.977808,50.6463156 C136.977808,47.9763895 136.020862,45.6402952 134.648505,44.0968997 C131.944702,41.1769032 128.118128,41.1349011 125.040068,41.0933846 L112.864362,41.0933846 C112.283851,41.0933846 111.812762,41.5656049 111.812762,42.1482931 L111.812762,69.489968 C111.812762,70.0726562 112.283851,70.5448765 112.864362,70.5448765 L118.123329,70.5448765 C118.704082,70.5448765 119.175171,70.0726562 119.175171,69.489968 L119.175171,61.0873607 L119.175171,60.0324521 L120.226771,60.0324521 L123.173381,60.0324521 L123.79214,60.0324521 L124.092805,60.5750806 L126.70389,65.2887857 L129.314734,70.0024909 C129.50041,70.3372938 129.852154,70.5448765 130.234158,70.5448765 L135.903453,70.5448765 C136.713214,70.5448765 137.219405,69.6655028 136.814162,68.9623923" id="Fill-25" fill="#891C56"></path>
                            <path d="M99.3364151,18.9008044 L94.3151709,18.9008044 L93.263571,18.9008044 L93.263571,17.8461386 L93.263571,11.9879367 L93.263571,10.9330281 L94.3151709,10.9330281 L99.5027247,10.9330281 C101.041634,10.9745447 103.745194,11.0998227 103.745194,14.8542773 C103.745194,18.7755264 100.376395,18.859045 99.3364151,18.9008044 M110.902803,33.2953892 L109.002467,29.9983448 L105.644804,24.1719479 C105.644804,24.1719479 105.64432,24.1719479 105.64432,24.1719479 L105.035002,23.114126 C105.385535,22.9822928 105.800946,22.8259381 106.244439,22.6300091 C106.299149,22.6059733 106.354343,22.5807234 106.40978,22.5552308 C106.50637,22.5110436 106.604171,22.4637002 106.702698,22.4151429 C106.759587,22.3872224 106.815992,22.3597875 106.873365,22.3301675 C106.983754,22.2731126 107.095353,22.2114448 107.207437,22.1483202 C107.251496,22.1233132 107.295796,22.1002484 107.339855,22.0742702 C107.495755,21.9829824 107.651898,21.8851393 107.807314,21.7802555 C107.835879,21.7610753 107.863961,21.7389817 107.892526,21.719316 C108.017682,21.6323983 108.142354,21.5415961 108.265815,21.4447241 C108.317862,21.4036932 108.369426,21.3592632 108.420989,21.3162899 C108.520968,21.2334996 108.61998,21.1477959 108.717538,21.057722 C108.772491,21.0067368 108.827201,20.9538093 108.880943,20.9003962 C108.97487,20.8081372 109.066377,20.7115081 109.156915,20.6114799 C109.208236,20.5546678 109.259558,20.4985841 109.309668,20.4391013 C109.405532,20.3257199 109.497765,20.2050549 109.588061,20.0817192 C109.627279,20.0287917 109.667948,19.9785348 109.705955,19.9234222 C109.831353,19.7418177 109.951667,19.5517157 110.063993,19.348746 C110.07876,19.3220394 110.091106,19.2921766 110.105146,19.2654701 C110.200768,19.0872646 110.291065,18.9012899 110.374825,18.7058466 C110.407021,18.6303399 110.435103,18.5492491 110.465847,18.4710718 C110.526609,18.3147171 110.584951,18.1547206 110.637241,17.9871977 C110.667016,17.8934821 110.693887,17.7966101 110.720516,17.6992526 C110.76627,17.5327009 110.807423,17.3603223 110.844462,17.1833308 C110.866491,17.079418 110.888036,16.9752625 110.906919,16.8674652 C110.94081,16.6732357 110.966471,16.4697804 110.98971,16.2626833 C111.000846,16.162898 111.014887,16.0667544 111.023602,15.9640556 C111.049504,15.6491612 111.066208,15.3235841 111.066208,14.9793125 C111.066208,12.3096291 110.109504,9.97329205 108.736905,8.43013934 C106.033102,5.50990007 102.206527,5.46789796 99.1284675,5.42638142 L86.9527613,5.42638142 C86.372251,5.42638142 85.9011614,5.89884448 85.9011614,6.48128994 L85.9011614,33.8232076 C85.9011614,34.4056531 86.372251,34.8781161 86.9527613,34.8781161 L92.211729,34.8781161 C92.7924814,34.8781161 93.263571,34.4056531 93.263571,33.8232076 L93.263571,25.4206003 L93.263571,24.365449 L94.3151709,24.365449 L97.2617809,24.365449 L97.8805399,24.365449 L98.1812045,24.9080774 L98.1812045,24.9080774 L100.79229,29.6217825 L103.403134,34.3354877 C103.58881,34.6705334 103.940554,34.8781161 104.322558,34.8781161 L109.991853,34.8781161 C110.801856,34.8781161 111.307805,33.9987424 110.902803,33.2953892" id="Fill-27" fill="#891C56"></path>
                            <g id="Group-31" transform="translate(139.680740, 40.059817)">
                                <mask id="mask-6" fill="white">
                                    <use xlink:href="#path-5"></use>
                                </mask>
                                <g id="Clip-30"></g>
                                <path d="M19.7116879,8.41722308 C18.4637603,7.08238142 16.550352,6.24792329 14.55391,6.24792329 C10.1032507,6.24792329 7.27477626,10.1694152 7.27477626,15.5090246 C7.27477626,22.5175503 11.1846266,25.103715 14.6371859,25.103715 C18.131141,25.103715 21.8746816,22.6005834 22.0826292,16.4267586 C22.207543,13.3399676 21.3755106,10.2111745 19.7116879,8.41722308 M14.6371859,31.3195419 C5.31997215,31.3195419 0.0372804747,24.1442217 0.0372804747,15.6343026 C0.0372804747,7.66652639 5.07038664,0.115857847 14.5122721,0.115857847 C16.2593707,0.115857847 18.0895031,0.366171006 19.8779975,0.992075299 C28.8625919,4.12062562 29.4450388,13.9238698 29.4450388,15.9261323 C29.4450388,21.0156714 27.1154933,25.6043413 23.8711237,28.2322653 C21.0012534,30.6098761 17.6736079,31.3195419 14.6371859,31.3195419" id="Fill-29" fill="#891C56" mask="url(#mask-6)"></path>
                            </g>
                        </g>
                        <polygon id="Fill-33" fill="#891C56" points="184.911041 35 182 35 182 15 195 15 195 17.4579714 184.911041 17.4579714 184.911041 23.672603 194.353749 23.672603 194.353749 26.0738876 184.911041 26.0738876"></polygon>
                        <g id="Group-59">
                            <path d="M207.027883,27.9616595 C207.027883,27.3279724 206.92848,26.7220575 206.731855,26.1439146 C206.533049,25.5667378 206.246476,25.0591119 205.870198,24.6210371 C205.493678,24.1829622 205.027452,23.8332752 204.472248,23.5724588 C203.917044,23.311401 203.28062,23.1807514 202.565886,23.1807514 C201.850182,23.1807514 201.214728,23.311401 200.659524,23.5724588 C200.104563,23.8332752 199.638337,24.1829622 199.261817,24.6210371 C198.885539,25.0591119 198.597754,25.5667378 198.40016,26.1439146 C198.202323,26.7220575 198.103889,27.3279724 198.103889,27.9616595 C198.103889,28.5955881 198.202323,29.2012616 198.40016,29.7789214 C198.597754,30.3565813 198.885539,30.8695201 199.261817,31.3165303 C199.638337,31.764265 200.104563,32.1180575 200.659524,32.3791153 C201.214728,32.6404146 201.850182,32.7705813 202.565886,32.7705813 C203.28062,32.7705813 203.917044,32.6404146 204.472248,32.3791153 C205.027452,32.1180575 205.493678,31.764265 205.870198,31.3165303 C206.246476,30.8695201 206.533049,30.3565813 206.731855,29.7789214 C206.92848,29.2012616 207.027883,28.5955881 207.027883,27.9616595 M209.786447,27.9474112 C209.786447,28.9759452 209.603399,29.9199554 209.237546,30.7794418 C208.871694,31.6394112 208.365464,32.3822548 207.71716,33.0084554 C207.070069,33.6351391 206.304663,34.1210303 205.422883,34.4666119 C204.541103,34.8126765 203.59362,34.9851051 202.579706,34.9851051 C201.566762,34.9851051 200.618308,34.8126765 199.736528,34.4666119 C198.854748,34.1210303 198.094434,33.6351391 197.456798,33.0084554 C196.818435,32.3822548 196.316084,31.6394112 195.950231,30.7794418 C195.584379,29.9199554 195.401574,28.9759452 195.401574,27.9474112 C195.401574,26.9196017 195.584379,25.9799384 195.950231,25.1296289 C196.316084,24.2790779 196.818435,23.5451697 197.456798,22.9283874 C198.094434,22.3113636 198.854748,21.8305439 199.736528,21.4839963 C200.618308,21.1386561 201.566762,20.9652616 202.579706,20.9652616 C203.59362,20.9652616 204.541103,21.1386561 205.422883,21.4839963 C206.304663,21.8305439 207.070069,22.3113636 207.71716,22.9283874 C208.365464,23.5451697 208.871694,24.2790779 209.237546,25.1296289 C209.603399,25.9799384 209.786447,26.9196017 209.786447,27.9474112" id="Fill-34" fill="#891C56"></path>
                            <path d="M221.722434,34.6208558 C221.68437,34.2842095 221.656973,33.9057844 221.63782,33.4850973 C221.618909,33.0648932 221.609454,32.7139986 221.609454,32.4338626 L221.553206,32.4338626 C221.215962,33.1443456 220.648151,33.7471211 219.850015,34.2421891 C219.052849,34.7372571 218.165735,34.9852741 217.189643,34.9852741 C216.327016,34.9852741 215.580521,34.8452061 214.952583,34.5650701 C214.32319,34.2842095 213.807505,33.896849 213.404558,33.401298 C213.000641,32.9062299 212.700491,32.3312265 212.503624,31.6767707 C212.30603,31.022798 212.207596,30.3217333 212.207596,29.5735769 L212.207596,21.329849 L214.854149,21.329849 L214.854149,28.6761755 C214.854149,29.2185769 214.896335,29.7377946 214.980949,30.2328626 C215.064593,30.7284136 215.220002,31.162866 215.445235,31.5367027 C215.670469,31.9105395 215.980074,32.2097537 216.373565,32.4338626 C216.767785,32.6582129 217.274257,32.7705088 217.893951,32.7705088 C218.963871,32.7705088 219.82674,32.3732469 220.484499,31.5787231 C221.141046,30.7841993 221.468834,29.7235463 221.468834,28.3960395 L221.468834,21.329849 L224.115145,21.329849 L224.115145,31.7610531 C224.115145,32.1158116 224.124843,32.5739306 224.143754,33.1349272 C224.161695,33.6956823 224.190303,34.1912333 224.227398,34.6208558 L221.722434,34.6208558 Z" id="Fill-36" fill="#891C56"></path>
                            <path d="M230.251894,21.3298248 C230.288988,21.6662296 230.317597,22.0448963 230.335538,22.4655833 C230.354449,22.8862704 230.363904,23.236682 230.363904,23.517301 L230.448518,23.517301 C230.617747,23.162301 230.847102,22.8300017 231.138038,22.5216105 C231.428732,22.2134609 231.761855,21.9427432 232.137163,21.70825 C232.512471,21.4752058 232.925843,21.2928759 233.37631,21.1617432 C233.826777,21.031335 234.295185,20.9654065 234.783473,20.9654065 C235.646342,20.9654065 236.388716,21.1107874 237.007198,21.4003418 C237.626651,21.6898963 238.142578,22.0779813 238.55595,22.563631 C238.968595,23.0502466 239.274079,23.6199371 239.470703,24.2739099 C239.667328,24.9283656 239.765762,25.6299133 239.765762,26.3771037 L239.765762,34.6208316 L237.120421,34.6208316 L237.120421,27.2464915 C237.120421,26.7045731 237.077993,26.1906684 236.993379,25.7040527 C236.908765,25.2181616 236.754326,24.7882976 236.529335,24.4144609 C236.303859,24.0406241 235.994254,23.7416514 235.599793,23.517301 C235.205574,23.2929507 234.699102,23.1808963 234.079407,23.1808963 C233.028398,23.1808963 232.169893,23.5779167 231.503891,24.3724405 C230.837646,25.1669643 230.504524,26.2276173 230.504524,27.5551241 L230.504524,34.6208316 L227.859183,34.6208316 L227.859183,24.1901105 C227.859183,23.835352 227.848515,23.377233 227.830574,22.8162364 C227.811663,22.2554813 227.783055,21.7599303 227.746203,21.3298248 L230.251894,21.3298248 Z" id="Fill-38" fill="#891C56"></path>
                            <path d="M245.255322,27.9616595 C245.255322,28.5767514 245.348422,29.173248 245.536561,29.7504248 C245.72373,30.3285677 246.004969,30.8410235 246.381489,31.2885167 C246.756555,31.7355269 247.215507,32.0948738 247.760044,32.364867 C248.30458,32.6351017 248.942216,32.7705813 249.674891,32.7705813 C250.350591,32.7705813 250.96471,32.6404146 251.518944,32.3791153 C252.071966,32.1180575 252.545465,31.7688534 252.939927,31.3307786 C253.334388,30.8927037 253.638902,30.3843534 253.854437,29.806935 C254.070215,29.2292752 254.179074,28.6236017 254.179074,27.9894316 C254.179074,27.3559861 254.070215,26.7498296 253.854437,26.1721697 C253.638902,25.5945099 253.334388,25.0822956 252.939927,24.6345609 C252.545465,24.1875507 252.071966,23.8332752 251.518944,23.5724588 C250.96471,23.311401 250.350591,23.1807514 249.674891,23.1807514 C248.942216,23.1807514 248.30458,23.311401 247.760044,23.5724588 C247.215507,23.8332752 246.756555,24.1875507 246.381489,24.6345609 C246.004969,25.0822956 245.72373,25.5945099 245.536561,26.1721697 C245.348422,26.7498296 245.255322,27.3460847 245.255322,27.9616595 L245.255322,27.9616595 Z M254.037485,32.5177344 C253.531013,33.3216765 252.841735,33.9336289 251.969168,34.354316 C251.095874,34.7752446 250.181363,34.9851051 249.224424,34.9851051 C248.191357,34.9851051 247.263269,34.8030167 246.437252,34.4385983 C245.61172,34.0744214 244.907411,33.5740405 244.326022,32.9384214 C243.744392,32.3032854 243.293925,31.5551289 242.974622,30.6951595 C242.655319,29.8356731 242.496759,28.919435 242.496759,27.9474112 C242.496759,26.9758704 242.655319,26.0644622 242.974622,25.2134282 C243.293925,24.3628772 243.748756,23.6197922 244.339599,22.9844146 C244.931898,22.3492786 245.639116,21.8537276 246.465861,21.4982446 C247.290666,21.1434861 248.201055,20.9652616 249.195815,20.9652616 C250.283918,20.9652616 251.232371,21.1944418 252.039235,21.6525609 C252.845857,22.1106799 253.484463,22.6668466 253.95384,23.3208194 L254.009846,23.3208194 L254.009846,13.4230813 L256.655429,13.4230813 L256.655429,34.6209282 L254.09446,34.6209282 L254.09446,32.5177344 L254.037485,32.5177344 Z" id="Fill-40" fill="#891C56"></path>
                            <path d="M268.505881,28.2839367 C267.849334,28.2839367 267.16927,28.3117088 266.465203,28.368219 C265.761137,28.4240048 265.123501,28.5360592 264.551326,28.7046238 C263.978423,28.8727054 263.504681,29.1248279 263.129373,29.4612327 C262.754065,29.7978789 262.566896,30.2463381 262.566896,30.8073347 C262.566896,31.2002497 262.646176,31.5272361 262.805706,31.7887769 C262.965479,32.0505592 263.175923,32.2654912 263.439221,32.4340558 C263.701306,32.6018959 263.992,32.7187803 264.311545,32.7842259 C264.630848,32.8499129 264.959607,32.882515 265.296851,32.882515 C266.535998,32.882515 267.487603,32.5135082 268.153605,31.7747701 C268.81985,31.0362735 269.153942,30.1065116 269.153942,28.9847599 L269.153942,28.2839367 L268.505881,28.2839367 Z M269.153942,26.0126612 C269.153942,25.0222837 268.85258,24.288134 268.253251,23.8114197 C267.651497,23.3349469 266.854331,23.0965898 265.860298,23.0965898 C265.109681,23.0965898 264.400281,23.2412463 263.735249,23.5308007 C263.068034,23.8210796 262.509921,24.1900864 262.059454,24.6387871 L260.652048,22.9562803 C261.308595,22.3392565 262.111095,21.8538483 263.059548,21.4983653 C264.006789,21.1433653 265.025067,20.9653823 266.11317,20.9653823 C267.070109,20.9653823 267.900975,21.1011034 268.604072,21.3718211 C269.308381,21.6430218 269.885647,22.0127531 270.336114,22.4798075 C270.786581,22.9468619 271.123825,23.4989231 271.349058,24.1338177 C271.574292,24.7694367 271.687272,25.4519061 271.687272,26.1807429 L271.687272,31.9853551 C271.687272,32.4340558 271.701092,32.9064231 271.7297,33.4012497 C271.757097,33.8968007 271.808981,34.3032395 271.883897,34.6208075 L269.491186,34.6208075 C269.341111,33.9856714 269.265953,33.3498109 269.265953,32.7141918 L269.181581,32.7141918 C268.692808,33.4249163 268.078689,33.9757701 267.337528,34.368685 C266.596367,34.7608755 265.718709,34.9574537 264.705765,34.9574537 C264.180382,34.9574537 263.631724,34.8874197 263.059548,34.7473517 C262.486403,34.6065592 261.965142,34.3781034 261.496734,34.0600524 C261.027357,33.7424844 260.638229,33.3217973 260.328382,32.7982327 C260.018777,32.2749095 259.864338,31.6303551 259.864338,30.8636034 C259.864338,29.8541476 260.136121,29.0547939 260.680657,28.4660252 C261.223981,27.8772565 261.937746,27.4285558 262.819526,27.1201646 C263.701306,26.811532 264.696309,26.6108483 265.803323,26.5171476 C266.910336,26.4239299 268.028018,26.3770796 269.153942,26.3770796 L269.153942,26.0126612 Z" id="Fill-42" fill="#891C56"></path>
                            <path d="M282.636936,23.4892633 L279.090662,23.4892633 L279.090662,30.3938925 C279.090662,31.1954197 279.240737,31.7682497 279.541129,32.1131068 C279.840308,32.4577224 280.319141,32.6299095 280.975931,32.6299095 C281.220075,32.6299095 281.483373,32.6045524 281.764611,32.5528721 C282.04585,32.5019163 282.299692,32.4246374 282.524925,32.3217599 L282.60954,34.4807395 C282.289994,34.5930354 281.937961,34.6814231 281.553197,34.7473517 C281.168191,34.8125558 280.769608,34.8451578 280.357448,34.8451578 C279.099148,34.8451578 278.138087,34.4998177 277.471842,33.8079299 C276.80584,33.1165252 276.472718,32.0790558 276.472718,30.6950388 L276.472718,23.4892633 L273.910779,23.4892633 L273.910779,21.3298007 L276.472718,21.3298007 L276.472718,17.5168109 L279.090662,17.5168109 L279.090662,21.3298007 L282.636936,21.3298007 L282.636936,23.4892633 Z" id="Fill-44" fill="#891C56"></path>
                            <mask id="mask-8" fill="white">
                                <use xlink:href="#path-7"></use>
                            </mask>
                            <g id="Clip-47"></g>
                            <path d="M285.677635,34.6209524 L288.324188,34.6209524 L288.324188,21.3299456 L285.677635,21.3299456 L285.677635,34.6209524 Z M288.746289,16.5352721 C288.746289,17.0218878 288.573909,17.4234966 288.229149,17.7410646 C287.885601,18.0591156 287.471017,18.2175374 286.98685,18.2175374 C286.503653,18.2175374 286.093432,18.0545272 285.758128,17.7268163 C285.423066,17.3998299 285.25602,17.0028095 285.25602,16.5352721 C285.25602,16.0491395 285.423066,15.6427007 285.758128,15.3157143 C286.093432,14.9887279 286.503653,14.8247517 286.98685,14.8247517 C287.471017,14.8247517 287.885601,14.9887279 288.229149,15.3157143 C288.573909,15.6427007 288.746289,16.0491395 288.746289,16.5352721 L288.746289,16.5352721 Z" id="Fill-46" fill="#891C56" mask="url(#mask-8)"></path>
                            <path d="M303.131065,27.9616595 C303.131065,27.3279724 303.031661,26.7220575 302.835037,26.1439146 C302.63623,25.5667378 302.349658,25.0591119 301.97338,24.6210371 C301.596859,24.1829622 301.130633,23.8332752 300.575429,23.5724588 C300.020226,23.311401 299.383802,23.1807514 298.669068,23.1807514 C297.953364,23.1807514 297.31791,23.311401 296.762706,23.5724588 C296.207744,23.8332752 295.741519,24.1829622 295.364998,24.6210371 C294.98872,25.0591119 294.700935,25.5667378 294.503341,26.1439146 C294.305504,26.7220575 294.207071,27.3279724 294.207071,27.9616595 C294.207071,28.5955881 294.305504,29.2012616 294.503341,29.7789214 C294.700935,30.3565813 294.98872,30.8695201 295.364998,31.3165303 C295.741519,31.764265 296.207744,32.1180575 296.762706,32.3791153 C297.31791,32.6404146 297.953364,32.7705813 298.669068,32.7705813 C299.383802,32.7705813 300.020226,32.6404146 300.575429,32.3791153 C301.130633,32.1180575 301.596859,31.764265 301.97338,31.3165303 C302.349658,30.8695201 302.63623,30.3565813 302.835037,29.7789214 C303.031661,29.2012616 303.131065,28.5955881 303.131065,27.9616595 M305.889628,27.9474112 C305.889628,28.9759452 305.706581,29.9199554 305.340728,30.7794418 C304.974875,31.6394112 304.468645,32.3822548 303.820342,33.0084554 C303.17325,33.6351391 302.407845,34.1210303 301.526065,34.4666119 C300.644284,34.8126765 299.696801,34.9851051 298.682887,34.9851051 C297.669943,34.9851051 296.72149,34.8126765 295.83971,34.4666119 C294.957929,34.1210303 294.197615,33.6351391 293.559979,33.0084554 C292.921616,32.3822548 292.419266,31.6394112 292.053413,30.7794418 C291.68756,29.9199554 291.504755,28.9759452 291.504755,27.9474112 C291.504755,26.9196017 291.68756,25.9799384 292.053413,25.1296289 C292.419266,24.2790779 292.921616,23.5451697 293.559979,22.9283874 C294.197615,22.3113636 294.957929,21.8305439 295.83971,21.4839963 C296.72149,21.1386561 297.669943,20.9652616 298.682887,20.9652616 C299.696801,20.9652616 300.644284,21.1386561 301.526065,21.4839963 C302.407845,21.8305439 303.17325,22.3113636 303.820342,22.9283874 C304.468645,23.5451697 304.974875,24.2790779 305.340728,25.1296289 C305.706581,25.9799384 305.889628,26.9196017 305.889628,27.9474112" id="Fill-48" fill="#891C56" mask="url(#mask-8)"></path>
                            <path d="M311.37817,21.3298248 C311.415022,21.6662296 311.443631,22.0448963 311.461572,22.4655833 C311.480726,22.8862704 311.490181,23.236682 311.490181,23.517301 L311.574795,23.517301 C311.744023,23.162301 311.973378,22.8300017 312.264072,22.5216105 C312.555009,22.2134609 312.888131,21.9427432 313.263197,21.70825 C313.638748,21.4752058 314.05212,21.2928759 314.502587,21.1617432 C314.953053,21.031335 315.421219,20.9654065 315.90975,20.9654065 C316.772619,20.9654065 317.514992,21.1107874 318.133232,21.4003418 C318.752927,21.6898963 319.268855,22.0779813 319.682227,22.563631 C320.09463,23.0502466 320.400113,23.6199371 320.59698,24.2739099 C320.793605,24.9283656 320.891796,25.6299133 320.891796,26.3771037 L320.891796,34.6208316 L318.246455,34.6208316 L318.246455,27.2464915 C318.246455,26.7045731 318.204269,26.1906684 318.119655,25.7040527 C318.035041,25.2181616 317.880602,24.7882976 317.655369,24.4144609 C317.430136,24.0406241 317.120531,23.7416514 316.726069,23.517301 C316.331608,23.2929507 315.825136,23.1808963 315.205683,23.1808963 C314.154675,23.1808963 313.29617,23.5779167 312.629925,24.3724405 C311.963923,25.1669643 311.6308,26.2276173 311.6308,27.5551241 L311.6308,34.6208316 L308.98546,34.6208316 L308.98546,24.1901105 C308.98546,23.835352 308.974792,23.377233 308.956851,22.8162364 C308.93794,22.2554813 308.909331,21.7599303 308.872237,21.3298248 L311.37817,21.3298248 Z" id="Fill-49" fill="#891C56" mask="url(#mask-8)"></path>
                            <polygon id="Fill-50" fill="#891C56" mask="url(#mask-8)" points="185.464757 69.9944565 182.678797 69.9944565 182.678797 50.1419871 195.120214 50.1419871 195.120214 52.5813442 185.464757 52.5813442 185.464757 58.7506163 194.501731 58.7506163 194.501731 61.1341878 185.464757 61.1341878"></polygon>
                            <path d="M207.027883,63.3352602 C207.027883,62.7013316 206.92848,62.0956582 206.731855,61.5175153 C206.533049,60.9403384 206.246476,60.4327126 205.870198,59.9946378 C205.493678,59.5565629 205.027452,59.2066344 204.472248,58.9455765 C203.917044,58.6842772 203.28062,58.553869 202.565886,58.553869 C201.850182,58.553869 201.214728,58.6842772 200.659524,58.9455765 C200.104563,59.2066344 199.638337,59.5565629 199.261817,59.9946378 C198.885539,60.4327126 198.597754,60.9403384 198.40016,61.5175153 C198.202323,62.0956582 198.103889,62.7013316 198.103889,63.3352602 C198.103889,63.9691888 198.202323,64.5748622 198.40016,65.1517976 C198.597754,65.730182 198.885539,66.2431207 199.261817,66.6906139 C199.638337,67.1371412 200.104563,67.4909337 200.659524,67.752233 C201.214728,68.0135323 201.850182,68.1439405 202.565886,68.1439405 C203.28062,68.1439405 203.917044,68.0135323 204.472248,67.752233 C205.027452,67.4909337 205.493678,67.1371412 205.870198,66.6906139 C206.246476,66.2431207 206.533049,65.730182 206.731855,65.1517976 C206.92848,64.5748622 207.027883,63.9691888 207.027883,63.3352602 M209.786447,63.3205289 C209.786447,64.3495459 209.603399,65.2930731 209.237546,66.1535255 C208.871694,67.0130119 208.365464,67.7565799 207.71716,68.3820561 C207.070069,69.0087398 206.304663,69.494148 205.422883,69.8406956 C204.541103,70.1860357 203.59362,70.3587058 202.579706,70.3587058 C201.566762,70.3587058 200.618308,70.1860357 199.736528,69.8406956 C198.854748,69.494148 198.094434,69.0087398 197.456798,68.3820561 C196.818435,67.7565799 196.316084,67.0130119 195.950231,66.1535255 C195.584379,65.2930731 195.401574,64.3495459 195.401574,63.3205289 C195.401574,62.2936854 195.584379,61.3542636 195.950231,60.5032296 C196.316084,59.6521956 196.818435,58.9192534 197.456798,58.3019881 C198.094434,57.6849643 198.854748,57.2036616 199.736528,56.8580799 C200.618308,56.5117738 201.566762,56.3388622 202.579706,56.3388622 C203.59362,56.3388622 204.541103,56.5117738 205.422883,56.8580799 C206.304663,57.2036616 207.070069,57.6849643 207.71716,58.3019881 C208.365464,58.9192534 208.871694,59.6521956 209.237546,60.5032296 C209.603399,61.3542636 209.786447,62.2936854 209.786447,63.3205289" id="Fill-51" fill="#891C56" mask="url(#mask-8)"></path>
                            <path d="M214.713506,56.7033048 C214.7506,57.040434 214.779209,57.4183762 214.79715,57.8388218 C214.816061,58.2599918 214.825516,58.6106449 214.825516,58.890781 L214.91013,58.890781 C215.079358,58.535781 215.308713,58.2042061 215.59965,57.8955735 C215.890344,57.5869408 216.223466,57.3164646 216.598775,57.0824544 C216.974083,56.8486857 217.387455,56.6665973 217.837922,56.5347401 C218.288389,56.405298 218.756797,56.3388864 219.245085,56.3388864 C220.107954,56.3388864 220.850327,56.4842673 221.46881,56.7738218 C222.088263,57.0636177 222.60419,57.4512197 223.017562,57.9375939 C223.430207,58.4232435 223.735691,58.9939 223.932315,59.6481143 C224.12894,60.3020871 224.227374,61.0033932 224.227374,61.7513082 L224.227374,69.9945531 L221.58179,69.9945531 L221.58179,62.6199714 C221.58179,62.0775701 221.539605,61.5636653 221.454991,61.0782571 C221.370377,60.5916415 221.215938,60.162019 220.990947,59.7881823 C220.765471,59.4143456 220.455866,59.1151313 220.061405,58.890781 C219.667185,58.6664306 219.160713,58.5538932 218.541019,58.5538932 C217.49001,58.5538932 216.631505,58.9518796 215.965503,59.7459204 C215.299258,60.5411687 214.966136,61.6015803 214.966136,62.9286041 L214.966136,69.9945531 L212.320795,69.9945531 L212.320795,59.563832 C212.320795,59.208832 212.310127,58.7507129 212.292186,58.1894748 C212.273275,57.6289612 212.244667,57.1341347 212.207815,56.7033048 L214.713506,56.7033048 Z" id="Fill-52" fill="#891C56" mask="url(#mask-8)"></path>
                            <path d="M229.716934,63.3352602 C229.716934,63.950352 229.810034,64.5463656 229.998173,65.1245085 C230.185342,65.7016854 230.466581,66.2146241 230.843101,66.6621173 C231.218167,67.109852 231.677119,67.46775 232.221656,67.7384677 C232.766192,68.0091854 233.403828,68.1439405 234.136503,68.1439405 C234.812203,68.1439405 235.426322,68.0135323 235.980313,67.752233 C236.533578,67.4909337 237.007077,67.1424541 237.401538,66.7043793 C237.796,66.2663044 238.100514,65.7586786 238.316049,65.1802942 C238.531827,64.6031173 238.640686,63.9967194 238.640686,63.3625493 C238.640686,62.7295867 238.531827,62.1239133 238.316049,61.5457704 C238.100514,60.968835 237.796,60.4558963 237.401538,60.0081616 C237.007077,59.5606684 236.533578,59.2066344 235.980313,58.9455765 C235.426322,58.6842772 234.812203,58.553869 234.136503,58.553869 C233.403828,58.553869 232.766192,58.6842772 232.221656,58.9455765 C231.677119,59.2066344 231.218167,59.5606684 230.843101,60.0081616 C230.466581,60.4558963 230.185342,60.968835 229.998173,61.5457704 C229.810034,62.1239133 229.716934,62.7201684 229.716934,63.3352602 L229.716934,63.3352602 Z M238.499097,67.891335 C237.992625,68.6957602 237.303347,69.3077126 236.43078,69.7279167 C235.557486,70.1481207 234.642975,70.3587058 233.686036,70.3587058 C232.652969,70.3587058 231.724881,70.1766173 230.898864,69.812199 C230.073331,69.4480221 229.369023,68.9476412 228.787634,68.3125051 C228.206004,67.6764031 227.755537,66.9287296 227.436234,66.0692432 C227.116931,65.2087908 226.958371,64.2935187 226.958371,63.3205289 C226.958371,62.3494711 227.116931,61.4385459 227.436234,60.5875119 C227.755537,59.7364779 228.210368,58.9938759 228.801211,58.3580153 C229.39351,57.7228793 230.100728,57.2268452 230.927473,56.8718452 C231.752278,56.5170867 232.662667,56.3388622 233.657427,56.3388622 C234.74553,56.3388622 235.693983,56.5685255 236.500605,57.0256786 C237.307469,57.4847636 237.946075,58.0397228 238.415452,58.6949031 L238.471458,58.6949031 L238.471458,48.797165 L241.117041,48.797165 L241.117041,69.9945289 L238.556072,69.9945289 L238.556072,67.891335 L238.499097,67.891335 Z" id="Fill-53" fill="#891C56" mask="url(#mask-8)"></path>
                            <path d="M252.967469,63.6575374 C252.310922,63.6575374 251.630857,63.686034 250.926791,63.7418197 C250.222725,63.7976054 249.585089,63.9101429 249.012913,64.0777415 C248.440011,64.2463061 247.966269,64.4989116 247.590961,64.8348333 C247.215653,65.1719626 247.028484,65.6206633 247.028484,66.1809354 C247.028484,66.5738503 247.107764,66.9013197 247.267294,67.1623776 C247.427067,67.4246429 247.637511,67.6395748 247.900808,67.806932 C248.162894,67.9754966 248.453588,68.092381 248.773133,68.1578265 C249.092436,68.2239966 249.421194,68.2556327 249.758438,68.2556327 C250.997586,68.2556327 251.949191,67.8871088 252.615193,67.1488537 C253.281438,66.4103571 253.61553,65.4805952 253.61553,64.3588435 L253.61553,63.6575374 L252.967469,63.6575374 Z M253.61553,61.3857789 C253.61553,60.3958844 253.314168,59.6617347 252.714839,59.1847789 C252.113085,58.7085476 251.315919,58.470432 250.321885,58.470432 C249.571269,58.470432 248.861869,58.6148469 248.196836,58.9044014 C247.529622,59.1951633 246.971266,59.5636871 246.521042,60.0123878 L245.113636,58.3296395 C245.770183,57.7133401 246.572683,57.2267245 247.521136,56.8717245 C248.468377,56.516966 249.486655,56.338983 250.574758,56.338983 C251.531697,56.338983 252.362563,56.4747041 253.06566,56.7454218 C253.769969,57.0171054 254.347235,57.3858707 254.797702,57.8534082 C255.248169,58.3209456 255.585413,58.8717993 255.810646,59.5079014 C256.035879,60.1430374 256.14886,60.8255068 256.14886,61.5543435 L256.14886,67.3584728 C256.14886,67.806932 256.162679,68.2800238 256.191046,68.7748503 C256.218685,69.2699184 256.270568,69.6763571 256.345484,69.9944082 L253.952774,69.9944082 C253.802699,69.3592721 253.72754,68.7234116 253.72754,68.0882755 L253.643169,68.0882755 C253.154395,68.798034 252.540277,69.3498537 251.799116,69.7415612 C251.057955,70.1344762 250.180296,70.3303299 249.167352,70.3303299 C248.641969,70.3303299 248.093069,70.2610204 247.521136,70.1209524 C246.947991,69.9808844 246.42673,69.7521871 245.958322,69.4341361 C245.488944,69.116085 245.099817,68.695881 244.789969,68.1713503 C244.480364,67.6489932 244.325925,67.0034728 244.325925,66.2367211 C244.325925,65.2277483 244.597466,64.4283946 245.142245,63.8396259 C245.685569,63.2508571 246.399333,62.8021565 247.281114,62.4937653 C248.162894,62.1851327 249.157897,61.9851735 250.26491,61.8914728 C251.371924,61.7975306 252.489605,61.7511633 253.61553,61.7511633 L253.61553,61.3857789 Z" id="Fill-54" fill="#891C56" mask="url(#mask-8)"></path>
                            <path d="M267.098548,58.862381 L263.552274,58.862381 L263.552274,65.7670102 C263.552274,66.5685374 263.702349,67.1413673 264.002741,67.4867075 C264.30192,67.8313231 264.780753,68.0039932 265.437543,68.0039932 C265.681687,68.0039932 265.944985,67.9786361 266.226223,67.9259898 C266.507462,67.875517 266.761304,67.7984796 266.986537,67.6953605 L267.071151,69.8543401 C266.751606,69.9661531 266.399573,70.0545408 266.014809,70.1209524 C265.629803,70.1861565 265.23122,70.2187585 264.81906,70.2187585 C263.560759,70.2187585 262.599699,69.8734184 261.933454,69.1812891 C261.267452,68.4894014 260.93433,67.451932 260.93433,66.0693639 L260.93433,58.862381 L258.372391,58.862381 L258.372391,56.7034014 L260.93433,56.7034014 L260.93433,52.8899286 L263.552274,52.8899286 L263.552274,56.7034014 L267.098548,56.7034014 L267.098548,58.862381 Z" id="Fill-55" fill="#891C56" mask="url(#mask-8)"></path>
                            <path d="M270.139199,69.9944082 L272.785752,69.9944082 L272.785752,56.7031599 L270.139199,56.7031599 L270.139199,69.9944082 Z M273.207852,51.9094524 C273.207852,52.3958265 273.035472,52.7971939 272.690712,53.1140374 C272.346922,53.4320884 271.93258,53.5912347 271.448413,53.5912347 C270.965216,53.5912347 270.554995,53.427983 270.219691,53.1005136 C269.884629,52.7740102 269.717583,52.3769898 269.717583,51.9094524 C269.717583,51.4225952 269.884629,51.0161565 270.219691,50.6896531 C270.554995,50.3621837 270.965216,50.198932 271.448413,50.198932 C271.93258,50.198932 272.346922,50.3621837 272.690712,50.6896531 C273.035472,51.0161565 273.207852,51.4225952 273.207852,51.9094524 L273.207852,51.9094524 Z" id="Fill-56" fill="#891C56" mask="url(#mask-8)"></path>
                            <path d="M287.592677,63.3352602 C287.592677,62.7013316 287.493273,62.0956582 287.296649,61.5175153 C287.097842,60.9403384 286.811269,60.4327126 286.434992,59.9946378 C286.058471,59.5565629 285.592245,59.2066344 285.037041,58.9455765 C284.481837,58.6842772 283.845414,58.553869 283.13068,58.553869 C282.414976,58.553869 281.779522,58.6842772 281.224318,58.9455765 C280.669356,59.2066344 280.203131,59.5565629 279.82661,59.9946378 C279.450332,60.4327126 279.162547,60.9403384 278.964953,61.5175153 C278.767116,62.0956582 278.668683,62.7013316 278.668683,63.3352602 C278.668683,63.9691888 278.767116,64.5748622 278.964953,65.1517976 C279.162547,65.730182 279.450332,66.2431207 279.82661,66.6906139 C280.203131,67.1371412 280.669356,67.4909337 281.224318,67.752233 C281.779522,68.0135323 282.414976,68.1439405 283.13068,68.1439405 C283.845414,68.1439405 284.481837,68.0135323 285.037041,67.752233 C285.592245,67.4909337 286.058471,67.1371412 286.434992,66.6906139 C286.811269,66.2431207 287.097842,65.730182 287.296649,65.1517976 C287.493273,64.5748622 287.592677,63.9691888 287.592677,63.3352602 M290.35124,63.3205289 C290.35124,64.3495459 290.168192,65.2930731 289.80234,66.1535255 C289.436487,67.0130119 288.930257,67.7565799 288.281954,68.3820561 C287.634862,69.0087398 286.869457,69.494148 285.987677,69.8406956 C285.105896,70.1860357 284.158413,70.3587058 283.144499,70.3587058 C282.131555,70.3587058 281.183102,70.1860357 280.301322,69.8406956 C279.419541,69.494148 278.659227,69.0087398 278.021591,68.3820561 C277.383228,67.7565799 276.880877,67.0130119 276.515025,66.1535255 C276.149172,65.2930731 275.966367,64.3495459 275.966367,63.3205289 C275.966367,62.2936854 276.149172,61.3542636 276.515025,60.5032296 C276.880877,59.6521956 277.383228,58.9192534 278.021591,58.3019881 C278.659227,57.6849643 279.419541,57.2036616 280.301322,56.8580799 C281.183102,56.5117738 282.131555,56.3388622 283.144499,56.3388622 C284.158413,56.3388622 285.105896,56.5117738 285.987677,56.8580799 C286.869457,57.2036616 287.634862,57.6849643 288.281954,58.3019881 C288.930257,58.9192534 289.436487,59.6521956 289.80234,60.5032296 C290.168192,61.3542636 290.35124,62.2936854 290.35124,63.3205289" id="Fill-57" fill="#891C56" mask="url(#mask-8)"></path>
                            <path d="M295.839782,56.7033048 C295.876634,57.040434 295.905243,57.4183762 295.923184,57.8388218 C295.942338,58.2599918 295.951793,58.6106449 295.951793,58.890781 L296.036407,58.890781 C296.205635,58.535781 296.43499,58.2042061 296.725684,57.8955735 C297.016621,57.5869408 297.349743,57.3164646 297.724809,57.0824544 C298.100359,56.8486857 298.513732,56.6665973 298.964199,56.5347401 C299.414665,56.405298 299.882831,56.3388864 300.371362,56.3388864 C301.234231,56.3388864 301.976362,56.4842673 302.594844,56.7738218 C303.214539,57.0636177 303.730467,57.4512197 304.143839,57.9375939 C304.556242,58.4232435 304.861725,58.9939 305.058592,59.6481143 C305.255217,60.3020871 305.353408,61.0033932 305.353408,61.7513082 L305.353408,69.9945531 L302.708067,69.9945531 L302.708067,62.6199714 C302.708067,62.0775701 302.665881,61.5636653 302.581267,61.0782571 C302.496653,60.5916415 302.342214,60.162019 302.116981,59.7881823 C301.891748,59.4143456 301.582143,59.1151313 301.187681,58.890781 C300.79322,58.6664306 300.286748,58.5538932 299.667295,58.5538932 C298.616287,58.5538932 297.757782,58.9518796 297.091537,59.7459204 C296.425535,60.5411687 296.092412,61.6015803 296.092412,62.9286041 L296.092412,69.9945531 L293.447072,69.9945531 L293.447072,59.563832 C293.447072,59.208832 293.436404,58.7507129 293.418463,58.1894748 C293.399552,57.6289612 293.370943,57.1341347 293.333849,56.7033048 L295.839782,56.7033048 Z" id="Fill-58" fill="#891C56" mask="url(#mask-8)"></path>
                        </g>
                    </g>
                </g>
            </g>
        </g>
    </g>
</svg>