<svg xmlns="http://www.w3.org/2000/svg" viewBox="0 0 23.87 20.84"><defs><style>.cls-1{fill:#f47c49}.cls-2{fill:#fff}.cls-3{fill:#f3a51e}</style></defs><title>Asset 8</title><g id="Layer_2" data-name="Layer 2"><g id="Layer_1-2" data-name="Layer 1"><path class="cls-1" d="M3.51 0h1.64v3.98H3.51zm15.17 0h1.64v3.98h-1.64z"/><path class="cls-1" d="M0 2.55h23.87v18.28H0z"/><path class="cls-2" d="M1.41 5.77h21.05v13.72H1.41z"/><path class="cls-3" d="M2.91 11.07h3.07v1.73H2.91zm3.9 0h3.07v1.73H6.81zm3.74-.09h3.07v1.73h-3.07zm3.82 0h3.07v1.73h-3.07zm3.75 0h3.07v1.73h-3.07zm-3.75-2.41h3.07v1.73h-3.07zm3.75 0h3.07v1.73h-3.07zM2.91 13.41h3.07v1.73H2.91zm3.9 0h3.07v1.73H6.81z"/></g></g></svg>