<svg xmlns="http://www.w3.org/2000/svg" viewBox="0 0 25.13 29.47"><defs><style>.cls-1{fill:#fff}.cls-2{fill:#f47c49}</style></defs><title>Asset 6</title><g id="Layer_2" data-name="Layer 2"><g id="Layer_1-2" data-name="Layer 1"><path class="cls-1" d="M14.89 20.74a8.18 8.18 0 0 0 8-5.26C25.4 9.69 24.75 4.53 25.13 0A12.19 12.19 0 0 1 23 1.27c-1 .42-7.78 2.09-10 5.72a13 13 0 0 0-.84 12 3.34 3.34 0 0 0 2.73 1.75z"/><path class="cls-2" d="M23.09 4.07A18.77 18.77 0 0 0 18 7.89a29.91 29.91 0 0 0-2.74 4.35c-.35.76-1.58 4-1.08 4.67a.87.87 0 0 0 1.54-.13 36.07 36.07 0 0 1 2.93-7.24 51.09 51.09 0 0 1 4.44-5.47z"/><path class="cls-1" d="M12.72 18.82s-2.29 6.89-1.49 9.72c.19.65.7.8 1.25.93 0 0 0-7.92 2.45-8.75s-2.21-1.9-2.21-1.9zM7.64 22.9A6.09 6.09 0 0 1 1.69 19C-.2 14.66.28 10.81 0 7.43a8.46 8.46 0 0 0 1.62.94c.77.32 5.81 1.57 7.49 4.28a9.74 9.74 0 0 1 .63 9 2.47 2.47 0 0 1-2.1 1.25z"/><path class="cls-2" d="M.52 9.46a14 14 0 0 1 3.78 2.86 22.29 22.29 0 0 1 2.05 3.24c.26.57 1.18 3 .8 3.49A.66.66 0 0 1 6 19a26.3 26.3 0 0 0-2.19-5.41A38.12 38.12 0 0 0 .52 9.46z"/></g></g></svg>