<svg xmlns="http://www.w3.org/2000/svg" viewBox="0 0 50.82 43.63"><defs><style>.cls-1{fill:#095b91}.cls-2{fill:#00aab1}.cls-3{fill:#dcb526}.cls-4{fill:#f2622f}.cls-5{fill:#86c663}</style></defs><title>Asset 1</title><g id="Layer_2" data-name="Layer 2"><g id="Layer_1-2" data-name="Layer 1"><path class="cls-1" d="M27.4 17v.48h-.86l-.64-1.24h-.32V17h.35v.48h-1.48V17h.39v-1.83h-.39v-.48h1.71a.84.84 0 0 1 .69.25.81.81 0 0 1 .21.55.73.73 0 0 1-.49.7L27 17zm-1.82-1.21h.25c.31 0 .47-.11.47-.33a.31.31 0 0 0-.11-.25.5.5 0 0 0-.29-.08h-.32zm2.32 1.73V17h.43v-1.83h-.43v.66h-.48v-1.14H30v1.14h-.5v-.66h-.44V17h.43v.48zm3.88-2.87a1.55 1.55 0 0 1 1.15.42 1.41 1.41 0 0 1 .42 1 1.4 1.4 0 0 1-.42 1 1.55 1.55 0 0 1-1.15.42 1.53 1.53 0 0 1-1.17-.43 1.44 1.44 0 0 1-.4-1 1.41 1.41 0 0 1 .42-1 1.53 1.53 0 0 1 1.15-.41zm0 .51a.73.73 0 0 0-.55.25 1.17 1.17 0 0 0 0 1.38.75.75 0 0 0 1.11 0 1 1 0 0 0 .23-.71 1 1 0 0 0-.22-.67.7.7 0 0 0-.57-.25zm3.3-.52h.58l-1.5 2.91h-.58zm.73 2.88V17h.34v-1.83h-.34v-.48h2.49v.9h-.54v-.42h-.87v.65h.7v.48h-.7v.7h.87v-.42h.54v.9zm5.68-.52v.48h-.86l-.63-1.2h-.32V17H40v.48h-1.45V17h.38v-1.83h-.38v-.48h1.7a.88.88 0 0 1 .7.25.81.81 0 0 1 .21.55.74.74 0 0 1-.49.7l.46.85zm-1.82-1.21h.25c.31 0 .47-.11.47-.33a.31.31 0 0 0-.11-.25.5.5 0 0 0-.29-.08h-.32zm3.49-1.14a1.55 1.55 0 0 1 1.15.42 1.41 1.41 0 0 1 .42 1 1.4 1.4 0 0 1-.42 1 1.55 1.55 0 0 1-1.15.42 1.52 1.52 0 0 1-1.16-.37 1.5 1.5 0 0 1 0-2.05 1.57 1.57 0 0 1 1.16-.42zm0 .51a.73.73 0 0 0-.55.25 1 1 0 0 0-.23.71 1 1 0 0 0 .22.67.72.72 0 0 0 .56.25.74.74 0 0 0 .55-.24 1 1 0 0 0 .23-.71 1 1 0 0 0-.22-.67.7.7 0 0 0-.56-.26z"/><path class="cls-2" d="M19.9 38.79h2.15a12.83 12.83 0 0 0 2-7.17v-.93h-4.1zM16.38 21.5h-4.45v4.43a4.07 4.07 0 0 1 2.39.92h2.07z"/><path class="cls-3" d="M17.58 31.78h4.36v5.07h-4.36z"/><path class="cls-2" d="M5.27 8.06h4.31v3.67H5.27z"/><path class="cls-1" d="M22.27 13.78v-2.79h-3.45v5.32h3.45v-2.53z"/><path class="cls-4" d="M17.21 16.31h1.67v-3.58h-3.99v.95h1.84l.48 2.63zM5.29 12.07V8.06H2.62l-.24 4.02 2.91-.01z"/><path class="cls-5" d="M7.41 18.76v-7.08H2.4L2 18.76h5.41z"/><path class="cls-2" d="M14.9 8.06h7.37v4.84H14.9z"/><path class="cls-5" d="M13.17 39.76v3.82a14.61 14.61 0 0 0 3.83-.76v-3.06zm2.93-18.18v4.54h4.7V23a8.82 8.82 0 0 0-1.8-1.42z"/><path class="cls-4" d="M20.8 26.11H13a4.16 4.16 0 0 1 2.74 3.33h5.06z"/><path class="cls-5" d="M2.59 36.21h-2a11.38 11.38 0 0 0 2 3.69z"/><path class="cls-4" d="M17.3 35.34v5.07h3.46l.22-.22a12.36 12.36 0 0 0 1-1.24v-3.62z"/><path class="cls-2" d="M17.59 40.34v-8.56H16v.36a6.75 6.75 0 0 1-1.23 4.33 3.92 3.92 0 0 1-1.6 1.19v2.69z"/><path class="cls-1" d="M19 21.58a9.36 9.36 0 0 0-3-1.16v1.16z"/><path class="cls-5" transform="rotate(-.06 9.544 9.554)" d="M9.58 10.44h5.39v3.24H9.58z"/><path class="cls-5" d="M9.32 20.92v.66h6.76v-1.15a12.68 12.68 0 0 0-2.89-.31 9.77 9.77 0 0 0-3.87.8zM6 28.05v-6.46H1.83l-.25 4.26L6 28.05z"/><path class="cls-3" d="M2.05 26.08h.48l-.01-5.64H1.9l-.32 5.41.47.23zM9.58 8.06h5.39v2.66H9.58z"/><path class="cls-5" d="M11.87 40.65V38h-.59c-2.65 0-4.19-1.69-4.65-5l-2.11.25v7.46z"/><path class="cls-2" d="M2.57 36.21v3.68a11.1 11.1 0 0 0 1 1.06 9.5 9.5 0 0 0 3.57 2V36.2z"/><path class="cls-3" d="M10.15 26.1H8.08v1.39a4.67 4.67 0 0 1 2.07-1.39z"/><path class="cls-1" d="M4.38 21.59v-2.84H2l-.17 2.84h2.55z"/><path class="cls-4" d="M4.37 18.75v5.07h6.55v-3.43a10.31 10.31 0 0 0-3.72 1.73l.2-3.37z"/><path class="cls-2" d="M2.5 21.59v4.51h5.57v-4.5H8c-.27.16-.54.34-.81.53v-.53z"/><path class="cls-1" d="M10.14 26.1a4.25 4.25 0 0 1 1.29-.2 5.67 5.67 0 0 1 .94.08v-4.4H8.06v4.52zm-2.99 8.98A9.36 9.36 0 0 1 6.63 33L0 33.74a15.14 15.14 0 0 0 .57 2.47h6.58z"/><path class="cls-4" d="M11.28 38a5.31 5.31 0 0 1-1.23-.15v5.69c.55.05 1.12.09 1.72.09s1 0 1.4-.05v-5.92a5.06 5.06 0 0 1-1.89.34z"/><path class="cls-3" d="M5.22 38.26v3.88a12.16 12.16 0 0 0 4.84 1.4v-5.28z"/><path class="cls-5" d="M21 31.78v-2.72h-5.39a10.53 10.53 0 0 1 .39 2.72z"/><path class="cls-1" d="M21.19 23.47a8.91 8.91 0 0 0-.91-.93v9.23H24v-.16a12.16 12.16 0 0 0-2.81-8.14z"/><path class="cls-4" d="M8.08 27.49v-1.4H4.32v1.11l2.89 1.44a7.16 7.16 0 0 1 .87-1.15z"/><path class="cls-1" d="M5.3 11.68v7.1h2.11l.29-5.1h4.26v-2.01l-6.66.01zM17 42.82a9.51 9.51 0 0 0 4-2.64 11.93 11.93 0 0 0 1.34-1.83H17z"/><path class="cls-3" d="M34.34 31.93A16.24 16.24 0 0 1 17.86 16 16.24 16.24 0 0 1 34.34 0a16.24 16.24 0 0 1 16.48 16 16.24 16.24 0 0 1-16.48 15.93zm0-26.93a11.23 11.23 0 0 0-11.47 11 11.24 11.24 0 0 0 11.47 11 11.24 11.24 0 0 0 11.47-11A11.24 11.24 0 0 0 34.34 5z"/></g></g></svg>