<svg xmlns="http://www.w3.org/2000/svg" viewBox="0 0 23.21 35.56"><defs><style>.cls-1{fill:#f47c49}.cls-2{fill:#f9d68e;stroke:#f47c49;stroke-miterlimit:10;stroke-width:2px}.cls-3{fill:#f3a51e}.cls-4{fill:#fff}</style></defs><title>Asset 5</title><g id="Layer_2" data-name="Layer 2"><g id="Layer_1-2" data-name="Layer 1"><rect class="cls-1" x="5.7" y="7.54" width="5.45" height="28.36" rx="1.67" ry="1.67" transform="rotate(19.14 8.421 21.73)"/><circle class="cls-2" cx="11.61" cy="11.61" r="10.6"/><path class="cls-3" d="M3.28 11.27a28.05 28.05 0 0 1 16.41-.33s-6.56 15.76-16.41.33z"/><path class="cls-3" d="M12.84 9.71S10 5.8 3.46 11c-1.36 1 9.38-1.29 9.38-1.29z"/><path class="cls-3" d="M10.23 9.71S13.07 5.8 19.61 11c1.39 1-9.38-1.29-9.38-1.29z"/><path class="cls-4" d="M5.08 11.57a26.31 26.31 0 0 1 13-.22s-5.22 10.42-13 .22z"/></g></g></svg>