<svg xmlns="http://www.w3.org/2000/svg" viewBox="0 0 795.24 794.72"><defs><style>.cls-1{fill:#c4d939;opacity:.3}</style></defs><title>Asset 1</title><g id="Layer_2" data-name="Layer 2"><path class="cls-1" d="M.14 386.87l385 9.81v-.35l6.58.51 2.92.24h.06l-2.89-.24 3.82.11.46.08-.47-.08-6.79-1.26-3.53-.66 3.53.66-385.4-50.84a397.19 397.19 0 0 1 7.78-41.68L385.55 394c0-.14.07-.27.11-.4l7.62 2.27 2.38.72 1.21.36h-.19.3-.11.23l-.1-.05-.49-.24.34.12.27.09h.16v-.05h-.33.13l.16.13h-.06l-.28-.1-.15-.09h-.25.06l-.82-.1-2.38-.71 2.89.7L23.42 262.48a399 399 0 0 1 16.5-39.13l346.43 168.41c.14-.29.29-.57.44-.84l5.29 2.91L60.45 186.3a397.24 397.24 0 0 1 24.29-34.59l303 237.77c.17-.23.35-.45.53-.66l8.2 7.14-283.93-276a397.88 397.88 0 0 1 31-28.65l246.17 296.11a3.55 3.55 0 0 1 .31-.23l4.48 6 2 2.43-2.59-4.36L177.32 66.05a397.05 397.05 0 0 1 36.43-21.55L392 386l.33-.16 2.88 6.3 1.52 3.34.42.92.14.29-.13-.28.13.15-.05-.33-.5-.73-1.51-3.32 1.94 3.72-.06-.2L252.36 26.91a396.53 396.53 0 0 1 40.31-13.39l101.56 371.59c.3-.09.61-.16.91-.23l1 4.65-62-385a397.62 397.62 0 0 1 42-4.49l20.64 384.58h.82v6.91-6.91h.8L418.11 0a397.33 397.33 0 0 1 42 4.38l-61 385.1 1-4.61c.31.07.62.14.93.24L501.59 13.26A397.92 397.92 0 0 1 542 26.54L398.13 395.63l.27-1 3.1-9.35-3.07 9.24-.33 1-.26.79v-.05l.23-.7-.05.28-.09.23.08-.22.07-.19-.05.22-.03.12.05-.19 1.89-3.64 2.91-6.42.34.15L580.62 44.05a394.51 394.51 0 0 1 36.48 21.47L401.35 391.14l-2.62 4.44 2.06-2.5 4.41-5.91.3.23L651 90.69a395.89 395.89 0 0 1 31 28.58L398.76 396l-.29.26-.06.06.23-.2 8.33-7.3c.18.2.36.42.54.65L709.91 151a396.87 396.87 0 0 1 24.36 34.52L403.18 393.81l5.25-2.92c.15.28.3.56.44.86l346-169.29a394.82 394.82 0 0 1 16.58 39.08l-372.38 135 2.71-.67-2.22.67-.78.11h-.05l-.46.23h.1l1.2-.36 2.25-.68 7.73-2.33c.05.14.08.27.12.41l374.11-91.79a394.49 394.49 0 0 1 7.88 41.66l-385.2 51.87-6.78 1.27 4.12-.11 6.29-.5v.32l385-10.77c.1 3.73.16 7.48.16 11.22q0 15.46-1.18 30.74l-388.24-29.91-6-.79 5.92.79 4.28.57c0 .35-.11.71-.19 1.08l378.74 70.2a396.39 396.39 0 0 1-10 41.27L399 397.58l.14.06-.26-.1-.23-.08-.18-.11h-.22.08l.34.12h.19l.4.14 10.1 3.64c-.07.17-.13.35-.2.52L764.28 551a396.3 396.3 0 0 1-18.5 38.17l-343-189.44 5.95 2.9-6-2.91-3.47-1.72-1-.49-.16-.08.08.12.1.12.6.38 4.3 2.69 4.92 3.08c0 .08-.1.18-.16.26l315.45 221a395.51 395.51 0 0 1-26 33.25L400.58 399.58l6.79 5.33-6.8-5.34-2.15-1.69-.09-.07.26.4 1 1 6.15 7.39-6.11-7.35-1.16-1.39 8.15 7.93c-.16.16-.32.32-.49.47L668 688.64a401.11 401.11 0 0 1-32.4 27l-234.4-313.5 3.48 5.23c-.27.18-.56.36-.86.53l196.61 331.23a396.61 396.61 0 0 1-37.53 19.66L398.81 400l3.41 8.68-.64.23 121.81 365.45a402.84 402.84 0 0 1-41 11.25L399 402.5l-.89-3.27.75 6.91.53 3.3h-.17l41.41 382.96a401.11 401.11 0 0 1-42 2.31l-1-394 .48 8.85-.48-9v-.78.44l-.48 9.32.48-9.24v394.42a395.43 395.43 0 0 1-42-2.22l40.46-383h-.19l.56-3.53.71-6.7.33-1.23.06 1-.06-1-.33 1.22-1 3.54-1.73 6.4 1.72-6.39-82.36 383.01a401.25 401.25 0 0 1-41-11.13l120.89-365.78c-.22-.07-.43-.15-.64-.24l3.4-8.74.59-1.49.21-.54v-.07l-.7.95-2 3.93 2.52-4.27-.59 1.51L233.24 759.2a397.08 397.08 0 0 1-37.6-19.57l195.8-331.71a9.09 9.09 0 0 1-.87-.52l3.49-5.26 2.62-3.95.26-.39-.13.09-2.24 1.76L98.5 659.07a397.44 397.44 0 0 1-26.1-33.18l314.91-221.74c-.05-.09-.11-.17-.16-.25l4.86-3.06 4.31-2.71.62-.39h.06l.11-.16.06-.08-.06.08-.19.1-1 .5-3.61 1.76-5.84 2.86 5.7-2.79L49.92 590.06A397.8 397.8 0 0 1 31.35 552l354.77-150.12c-.07-.18-.14-.35-.2-.53l10.08-3.66.27-.11L16.92 512a398.49 398.49 0 0 1-10.07-41.24l378.56-71.15c-.08-.37-.15-.74-.19-1.09l4-.54 6.32-.85-6.32.85L1.26 428.84Q0 413.06 0 397.09c0-3.41.05-6.82.14-10.22z" id="Layer_1-2" data-name="Layer 1"/></g></svg>