<svg xmlns="http://www.w3.org/2000/svg" viewBox="0 0 135.4 140.94"><defs><style>.cls-1{fill:#f5f5f5;fill-rule:evenodd}</style></defs><title>Asset 1</title><g id="Layer_2" data-name="Layer 2"><path class="cls-1" d="M135.4 113.82c-5.93 2.47-39.11-13.85-44.12-15.56 1.89-.11 4-.92 5.94-.52 3 .6 5.72 2.1 8.62 3.06a19.27 19.27 0 0 0 4.74 1.07c.46 0 4.21-.47 4.19-.49-1.39-1.6-2.68-3.31-4.15-4.85 3.8-1.28 11.16-.12 12.45-5.25-7.68-1.63-14.64-.88-21.69-5.21-5.7-3.49-10.77-7.92-17.26-9.95a98.07 98.07 0 0 0 21.3 4.31c3.73.28 7.62.27 9.66-3.34-2.25.8-5.76-.37-7.76-1.6-5.84-3.6-10-9-16.34-12 4.77.27 15.15 6.14 18.91 1.31-5.58-1.38-10.13-3.68-15.11-6.53-2.39-1.36-12.26-7.55-14.88-5.32C85.7 48 95.55 55 97.13 51.86c.28-.57-10.64-5.78-11.86-6.14 3.17-1.34 6.92-.83 10.17-.06 1 .22 4.4 1.37 5 .34 1-1.55-4-4.3-4.88-5.06-.68-.61-9.94-7.25-10-7.23.9-1.22 7.16-1.75 7.69-.24-1.63-4.69-8.66-6.59-12.62-8.72-1.13-.61-3.7-1.42-3.89-2.95-.26-2.28 2.46-1.87 3.86-1.47.69.21 6.63 2.61 6.43 2.35C81.27 15.05 67.42 7.76 67.42 0a15.76 15.76 0 0 1-2.59 5.79 31.64 31.64 0 0 1-3.17 3.85c-3.87 4.06-10.5 7.83-14.37 11.9 1.25-1.32 5.51-1.86 7-1.47.47.13 4 1 3.29 1.76a11.48 11.48 0 0 1-4.81 2.64c-4.8 1.39-8.25 2-11.09 6.47 1.19-.27 7.36-1.75 7.87-.16S39.84 38.86 38.64 40c-1.79 1.7-9.09 6.49-1.87 4.88 2.32-.51 4.49-1.45 6.89-1.6 2.2-.15 4.24 1.26 6.18 1.2-1.94.06-16.94 7.49-17 7.41 2.34 3.63 9.5.95 12.91 1.92 2.07.59 3.65 2.39 5.89 2.46-5.9.15-11 3.25-16.3 5.57-1.41.62-9.4 4.27-10.69 2.76 3 3.49 11.29 6 15.68 4-2.18 1-20.37 12.16-20.66 8 .83 12 22.25 6.94 29.1 4.81-5.91 1.85-11.07 5.27-16.85 7.39a42.53 42.53 0 0 1-10.87 2.39c-.67.06-9.09-.16-9.12-.05-1 3.12 2.36 3.66 4.6 4.08 3.27.6 5.65 1 3.79 4.84 4.07.68 8.17-.51 12.26-.11 1.85.19 4.2 0 5.81.83-2.75 1.07-32.13 15.78-38.39 15.56 13 7 37.28 11.51 63.79 11.33v11.65a8.84 8.84 0 0 0 10.2 0v-11.94c21.28-1.1 43.23-5.27 61.41-13.56z" id="Layer_1-2" data-name="Layer 1"/></g></svg>